<svg xmlns="http://www.w3.org/2000/svg" viewBox="0 0 48 48" fill="none">
  <g fill="#FF8A3D">
    <g transform="rotate(-13 14 32)">
      <rect x="8.5" y="22" width="11.5" height="21" rx="5"/>
      <rect x="9" y="13" width="2.7" height="11" rx="1.35"/>
      <rect x="12.2" y="11.5" width="2.7" height="12.5" rx="1.35"/>
      <rect x="15.4" y="12.5" width="2.7" height="11.5" rx="1.35"/>
    </g>
    <g transform="rotate(13 34 32)">
      <rect x="28" y="22" width="11.5" height="21" rx="5"/>
      <rect x="29.9" y="12.5" width="2.7" height="11.5" rx="1.35"/>
      <rect x="33.1" y="11.5" width="2.7" height="12.5" rx="1.35"/>
      <rect x="36.3" y="13" width="2.7" height="11" rx="1.35"/>
    </g>
  </g>
  <g fill="#FFC861">
    <path d="M24 3l1.4 3.5L29 7.9l-3.6 1.4L24 13l-1.4-3.7L19 7.9l3.6-1.4z"/>
    <circle cx="10" cy="8" r="1.7"/>
    <circle cx="38" cy="8" r="1.7"/>
  </g>
</svg>
